# xmcd
# Track frame offsets:
# 150
# 21887
# 37137
# 44740
# 62530
# 77010
# 86990
# 103310
# 112092
# 129270
# 144735
# 161525
# 174630
# 189180
# 205487
#
# Disc length: 3021 seconds
# Revision: 1
# Processed by: cddbd v1.5.1PL2 Copyright (c) Steve Scherf et al.
# Submitted via: VisiTrax 2.9.10.228 - For more info visit www.synapsa.com
#
DISCID=db0bcb0f
DTITLE=Bennett, Tony - Tony Bennett Sings for Lovers
DYEAR=2006
DGENRE=Jazz
TTITLE0=My Foolish Heart
TTITLE1=Isn't it Romantic
TTITLE2=This Can't be Love
TTITLE3=The Touch of your Lips
TTITLE4=I could Write a Book
TTITLE5=Thou Swell
TTITLE6=But Beautiful
TTITLE7=My Heart Stood Still
TTITLE8=Lover
TTITLE9=You Don't know What Love Is
TTITLE10=My Romance
TTITLE11=Minha (All Mine)
TTITLE12=As Time Goes By
TTITLE13=Bridges (Travessia)
TTITLE14=Some Other Time
EXTD=Released: 2006  \nLabel: Concord  \nCredits:\n  John Giuffrida Bas
EXTD=s  \n  George Barnes Guitar  \n  Bill Evans Piano  \n  Ruby Braff Corn
EXTD=et  \n  Chuck Hughes Drums, Orchestra  \n  Wayne Wright Guitar  \n  To
EXTD=rrie Zito Piano
EXTT0=
EXTT1=
EXTT2=
EXTT3=
EXTT4=
EXTT5=
EXTT6=
EXTT7=
EXTT8=
EXTT9=
EXTT10=
EXTT11=
EXTT12=
EXTT13=
EXTT14=
PLAYORDER=
